<?xml version="1.0" encoding="UTF-8"?>
<svg id="Layer_2" data-name="Layer 2" xmlns="http://www.w3.org/2000/svg" viewBox="0 0 66.21 67.43">
  <defs>
    <style>
      .cls-1 {
        fill: #ed1c24;
      }
    </style>
  </defs>
  <g id="Layer_1-2" data-name="Layer 1">
    <g>
      <path class="cls-1" d="m.23,30.94c1.49.79,8.39-12.81,20.07-18.7,2.09-1.05,3.97-1.66,4.61-1.87,7.24-2.32,13.06-1.45,14.2-1.26,2.29.37,5.62.95,8.61,3.38,1.97,1.6,2.64,3.07,2.87,3.61.26.64.87,2.36.5,4.49-.23,1.29-.71,2.17-1.25,3.12-1.16,2.05-2.47,3.36-3.37,4.24-3.28,3.21-5.73,5.24-5.73,5.24-3.9,3.22-5.99,4.65-9.47,7.85-.84.77-2.06,1.92-3.24,3.74-.61.94-1.49,2.32-1.99,4.24-.84,3.2-.1,5.9.25,7.1,1.16,4.03,3.7,6.39,4.36,6.98,2.75,2.44,5.65,3.11,7.35,3.49.98.22,3.8.76,7.35.12,4.84-.86,8.01-3.3,9.35-4.36,2.04-1.62,3.43-3.31,4.3-4.52,1.06-1.43,2.35-3.38,3.55-5.82,1.43-2.91,2.14-5.29,2.37-6.11,1.23-4.33,1.52-8.64,1.12-8.73-.23-.05-.47,1.94-1.87,4.61-1.04,1.99-2.13,3.24-3.46,4.76-.64.74-3.06,3.44-6.92,6.14-1.68,1.17-2.89,1.82-3.32,2.04-.02.01-.07.03-.11.05-1.31.67-3.59,1.82-5.7,1.43-1.59-.3-3.51-1.55-4.02-3.4-.56-2.03.81-3.96,2.18-5.89.5-.71,1.17-1.4,2.49-2.77,1.92-1.99,2.95-2.76,5.06-4.7,1.72-1.58,3.12-2.88,4.67-4.55,1.54-1.68,3.04-3.3,4.27-5.32.8-1.31,3.27-5.53,2.99-11.34-.07-1.55-.38-6.57-4.11-10.97-3.12-3.68-6.94-4.94-9.72-5.86C44.98.25,42.15.12,39.75.03c-6.45-.24-11.53,1.11-13.96,1.87-2.85.9-8.71,2.8-14.46,7.98-1.19,1.07-6.72,6.19-9.85,14.83-.4,1.1-2.09,5.78-1.25,6.23Z"/>
      <path class="cls-1" d="m25.79,67.43c-.95-.75-2.22-1.89-3.49-3.49-.92-1.16-2.8-3.59-3.74-7.23-.85-3.33-.49-6.02-.25-7.73.76-5.26,3.17-8.89,4.24-10.47,1.67-2.46,3.37-4.09,5.86-6.48,4.04-3.88,7.41-6.78,8.23-8.1.42-.67,1.18-1.9.87-3.24-.27-1.18-1.25-1.86-1.62-2.12-2.9-2.03-7.57-.57-9.72.12-1.3.42-5.2,1.8-9.47,5.36-5.13,4.28-7.59,9.02-8.35,10.6-1.13,2.34-2.96,6.24-2.99,11.59-.01,2.05.01,5.74,2.12,9.72,1.58,2.99,3.59,4.75,4.74,5.73,4.95,4.25,10.59,5.38,13.59,5.73Z"/>
    </g>
  </g>
</svg>