<?xml version="1.0" encoding="UTF-8"?>
<svg id="Layer_2" data-name="Layer 2" xmlns="http://www.w3.org/2000/svg" viewBox="0 0 323.25 67.43">
  <defs>
    <style>
      .cls-1 {
        fill: #ed1c24;
      }
    </style>
  </defs>
  <g id="Layer_1-2" data-name="Layer 1">
    <g>
      <g>
        <path class="cls-1" d="m.23,30.94c1.49.79,8.39-12.81,20.07-18.7,2.09-1.05,3.97-1.66,4.61-1.87,7.24-2.32,13.06-1.45,14.2-1.26,2.29.37,5.62.95,8.61,3.38,1.97,1.6,2.64,3.07,2.87,3.61.26.64.87,2.36.5,4.49-.23,1.29-.71,2.17-1.25,3.12-1.16,2.05-2.47,3.36-3.37,4.24-3.28,3.21-5.73,5.24-5.73,5.24-3.9,3.22-5.99,4.65-9.47,7.85-.84.77-2.06,1.92-3.24,3.74-.61.94-1.49,2.32-1.99,4.24-.84,3.2-.1,5.9.25,7.1,1.16,4.03,3.7,6.39,4.36,6.98,2.75,2.44,5.65,3.11,7.35,3.49.98.22,3.8.76,7.35.12,4.84-.86,8.01-3.3,9.35-4.36,2.04-1.62,3.43-3.31,4.3-4.52,1.06-1.43,2.35-3.38,3.55-5.82,1.43-2.91,2.14-5.29,2.37-6.11,1.23-4.33,1.52-8.64,1.12-8.73-.23-.05-.47,1.94-1.87,4.61-1.04,1.99-2.13,3.24-3.46,4.76-.64.74-3.06,3.44-6.92,6.14-1.68,1.17-2.89,1.82-3.32,2.04-.02.01-.07.03-.11.05-1.31.67-3.59,1.82-5.7,1.43-1.59-.3-3.51-1.55-4.02-3.4-.56-2.03.81-3.96,2.18-5.89.5-.71,1.17-1.4,2.49-2.77,1.92-1.99,2.95-2.76,5.06-4.7,1.72-1.58,3.12-2.88,4.67-4.55,1.54-1.68,3.04-3.3,4.27-5.32.8-1.31,3.27-5.53,2.99-11.34-.07-1.55-.38-6.57-4.11-10.97-3.12-3.68-6.94-4.94-9.72-5.86C44.98.25,42.15.12,39.75.03c-6.45-.24-11.53,1.11-13.96,1.87-2.85.9-8.71,2.8-14.46,7.98-1.19,1.07-6.72,6.19-9.85,14.83-.4,1.1-2.09,5.78-1.25,6.23Z"/>
        <path class="cls-1" d="m25.79,67.43c-.95-.75-2.22-1.89-3.49-3.49-.92-1.16-2.8-3.59-3.74-7.23-.85-3.33-.49-6.02-.25-7.73.76-5.26,3.17-8.89,4.24-10.47,1.67-2.46,3.37-4.09,5.86-6.48,4.04-3.88,7.41-6.78,8.23-8.1.42-.67,1.18-1.9.87-3.24-.27-1.18-1.25-1.86-1.62-2.12-2.9-2.03-7.57-.57-9.72.12-1.3.42-5.2,1.8-9.47,5.36-5.13,4.28-7.59,9.02-8.35,10.6-1.13,2.34-2.96,6.24-2.99,11.59-.01,2.05.01,5.74,2.12,9.72,1.58,2.99,3.59,4.75,4.74,5.73,4.95,4.25,10.59,5.38,13.59,5.73Z"/>
      </g>
      <g>
        <path d="m82.2,35.67v-17.43h7.54c1.56,0,2.9.25,4.03.76,1.13.51,2,1.23,2.61,2.18.61.95.92,2.08.92,3.39s-.31,2.41-.92,3.35c-.61.94-1.49,1.66-2.61,2.15-1.13.5-2.47.75-4.03.75h-5.3l1.79-1.77v6.62h-4.03Zm4.03-6.17l-1.79-1.89h5.08c1.25,0,2.17-.27,2.79-.81.61-.54.92-1.28.92-2.23s-.31-1.71-.92-2.24c-.61-.53-1.54-.8-2.79-.8h-5.08l1.79-1.92v9.88Zm7.05,6.17l-4.36-6.32h4.31l4.41,6.32h-4.36Z"/>
        <path d="m109.46,35.97c-1.38,0-2.65-.22-3.82-.67-1.17-.45-2.18-1.08-3.04-1.89-.85-.81-1.52-1.77-1.99-2.86-.47-1.1-.71-2.29-.71-3.59s.24-2.49.71-3.59,1.14-2.05,2-2.86c.86-.81,1.88-1.44,3.04-1.89,1.16-.45,2.42-.67,3.78-.67s2.64.22,3.8.67c1.15.45,2.16,1.08,3.01,1.89.85.81,1.52,1.76,2,2.85.48,1.09.72,2.29.72,3.6s-.24,2.49-.72,3.6c-.48,1.1-1.15,2.06-2,2.86-.85.81-1.86,1.43-3.01,1.88-1.15.45-2.41.67-3.77.67Zm-.02-3.44c.78,0,1.5-.13,2.15-.4.66-.27,1.23-.65,1.73-1.15.5-.5.88-1.09,1.16-1.77.27-.68.41-1.44.41-2.27s-.14-1.58-.41-2.27c-.27-.68-.66-1.27-1.15-1.77-.49-.5-1.07-.88-1.73-1.15-.66-.27-1.39-.4-2.17-.4s-1.5.13-2.15.4c-.66.27-1.23.65-1.73,1.15-.5.5-.88,1.09-1.16,1.77-.27.68-.41,1.44-.41,2.27s.14,1.56.41,2.25c.27.69.66,1.28,1.15,1.78.49.5,1.07.88,1.73,1.15.66.27,1.39.4,2.17.4Z"/>
        <path d="m122.51,35.67v-17.43h3.34l7.42,12.3h-1.77l7.3-12.3h3.31l.05,17.43h-3.78l-.02-11.63h.7l-5.83,9.79h-1.82l-5.95-9.79h.85v11.63h-3.78Z"/>
        <path d="m144.5,35.67l7.77-17.43h3.98l7.79,17.43h-4.23l-6.37-15.39h1.59l-6.4,15.39h-4.13Zm3.88-3.73l1.07-3.06h8.96l1.1,3.06h-11.13Zm.87-15.11l3.29-3.59h3.44l3.29,3.59h-2.84l-3.44-2.99h2.54l-3.44,2.99h-2.84Z"/>
        <path d="m166.36,35.67v-17.43h3.34l10.28,12.55h-1.62v-12.55h3.98v17.43h-3.31l-10.31-12.55h1.62v12.55h-3.98Z"/>
        <path d="m186.97,35.67v-17.43h4.03v17.43h-4.03Z"/>
        <path d="m193.35,35.67l7.77-17.43h3.98l7.79,17.43h-4.23l-6.37-15.39h1.59l-6.4,15.39h-4.13Zm3.88-3.73l1.07-3.06h8.96l1.1,3.06h-11.13Z"/>
        <path d="m231.22,35.97c-1.38,0-2.65-.22-3.82-.67-1.17-.45-2.18-1.08-3.04-1.89-.86-.81-1.52-1.77-1.99-2.86-.47-1.1-.71-2.29-.71-3.59s.24-2.49.71-3.59,1.14-2.05,2-2.86c.86-.81,1.88-1.44,3.04-1.89,1.16-.45,2.42-.67,3.78-.67s2.64.22,3.8.67c1.15.45,2.16,1.08,3.01,1.89.86.81,1.52,1.76,2,2.85.48,1.09.72,2.29.72,3.6s-.24,2.49-.72,3.6c-.48,1.1-1.15,2.06-2,2.86-.85.81-1.86,1.43-3.01,1.88-1.15.45-2.41.67-3.77.67Zm-.03-3.44c.78,0,1.5-.13,2.15-.4.66-.27,1.23-.65,1.73-1.15.5-.5.88-1.09,1.16-1.77.27-.68.41-1.44.41-2.27s-.14-1.58-.41-2.27c-.27-.68-.66-1.27-1.15-1.77-.49-.5-1.07-.88-1.73-1.15-.66-.27-1.39-.4-2.17-.4s-1.5.13-2.15.4c-.66.27-1.23.65-1.73,1.15-.5.5-.88,1.09-1.16,1.77-.27.68-.41,1.44-.41,2.27s.14,1.56.41,2.25c.27.69.66,1.28,1.15,1.78.49.5,1.07.88,1.73,1.15.66.27,1.39.4,2.17.4Z"/>
        <path d="m244.26,35.67v-17.43h3.34l10.28,12.55h-1.62v-12.55h3.98v17.43h-3.31l-10.31-12.55h1.62v12.55h-3.98Z"/>
        <path d="m264.88,35.67v-17.43h4.03v14.14h8.74v3.29h-12.77Z"/>
        <path d="m280.41,35.67v-17.43h4.03v17.43h-4.03Z"/>
        <path d="m289.08,35.67v-17.43h3.34l10.28,12.55h-1.62v-12.55h3.98v17.43h-3.31l-10.31-12.55h1.62v12.55h-3.98Z"/>
        <path d="m313.7,32.44h9.49v3.24h-13.5v-17.43h13.17v3.24h-9.16v10.96Zm-.3-7.17h8.39v3.14h-8.39v-3.14Z"/>
      </g>
      <g>
        <path d="m86.42,50.15c-.69,0-1.32-.12-1.9-.35-.58-.23-1.09-.56-1.52-.98-.43-.42-.76-.92-1-1.48s-.36-1.19-.36-1.87.12-1.3.36-1.87.57-1.06,1.01-1.48c.44-.42.94-.75,1.52-.98s1.21-.35,1.9-.35,1.26.11,1.83.32,1.05.53,1.46.96l-.42.43c-.4-.39-.83-.67-1.31-.84-.48-.17-.99-.26-1.52-.26-.59,0-1.14.1-1.64.3s-.94.49-1.32.86c-.37.37-.66.8-.87,1.29s-.31,1.03-.31,1.61.1,1.12.31,1.61.5.92.87,1.29c.37.37.81.65,1.32.86s1.05.3,1.64.3c.54,0,1.04-.08,1.52-.26.48-.17.92-.46,1.31-.85l.42.43c-.4.43-.89.75-1.46.97-.57.22-1.18.32-1.83.32Z"/>
        <path d="m97.22,50.14c-.66,0-1.25-.15-1.76-.45-.51-.3-.92-.71-1.23-1.24-.3-.53-.45-1.13-.45-1.81s.15-1.29.45-1.81c.3-.52.71-.93,1.23-1.23s1.1-.45,1.76-.45,1.25.15,1.77.45.93.71,1.23,1.23c.3.52.45,1.13.45,1.81s-.15,1.28-.45,1.81c-.3.53-.71.94-1.23,1.24-.52.3-1.11.45-1.77.45Zm0-.59c.53,0,1-.12,1.42-.36.42-.24.75-.58.99-1.02s.36-.95.36-1.52-.12-1.09-.36-1.52c-.24-.43-.57-.77-.99-1.01-.42-.24-.9-.36-1.42-.36s-1,.12-1.42.36c-.42.24-.75.58-.99,1.01-.24.44-.36.94-.36,1.52s.12,1.08.36,1.52.57.78.99,1.02c.42.24.89.36,1.42.36Z"/>
        <path d="m114.37,43.15c.55,0,1.03.11,1.44.32.41.22.73.54.96.98.23.43.34.97.34,1.61v4.02h-.66v-3.97c0-.77-.19-1.36-.57-1.77s-.91-.61-1.58-.61c-.52,0-.97.11-1.34.33s-.67.53-.87.92c-.2.4-.3.87-.3,1.42v3.66h-.66v-3.97c0-.77-.19-1.36-.57-1.77s-.91-.61-1.58-.61c-.52,0-.97.11-1.34.33s-.67.53-.87.92-.3.87-.3,1.42v3.66h-.66v-6.88h.63v1.9l-.09-.21c.2-.54.54-.96,1.02-1.27.47-.31,1.05-.47,1.71-.47s1.26.17,1.73.52c.47.35.77.86.89,1.55l-.22-.09c.18-.59.53-1.07,1.04-1.43.51-.37,1.13-.55,1.86-.55Z"/>
        <path d="m125.72,50.14c-.59,0-1.1-.11-1.53-.32-.43-.22-.76-.54-1-.98-.23-.44-.35-.97-.35-1.62v-4.02h.66v3.97c0,.77.2,1.36.59,1.77s.95.61,1.67.61c.52,0,.97-.11,1.34-.33.38-.22.67-.53.87-.93.2-.4.3-.87.3-1.42v-3.67h.66v6.88h-.63v-1.91l.09.22c-.2.54-.54.96-1.01,1.27-.47.31-1.03.47-1.68.47Z"/>
        <path d="m138.2,43.15c.56,0,1.05.11,1.47.32.42.22.74.54.98.98.23.43.35.97.35,1.61v4.02h-.66v-3.97c0-.77-.2-1.36-.59-1.77s-.94-.61-1.64-.61c-.54,0-1,.11-1.4.33s-.7.53-.9.92c-.21.4-.31.87-.31,1.42v3.66h-.66v-6.88h.63v1.91l-.09-.21c.21-.54.56-.97,1.04-1.29.48-.31,1.08-.47,1.78-.47Z"/>
        <path d="m147.14,41.53c-.15,0-.28-.05-.38-.16s-.16-.23-.16-.37c0-.15.05-.28.16-.38s.23-.16.38-.16c.16,0,.29.05.39.15.1.1.15.23.15.38s-.05.28-.15.38-.23.16-.39.16Zm-.33,8.55v-6.88h.66v6.88h-.66Z"/>
        <path d="m152.21,43.77v-.57h4.11v.57h-4.11Zm3.14,6.37c-.61,0-1.07-.17-1.39-.5s-.48-.79-.48-1.37v-6.56h.66v6.5c0,.44.11.78.33,1.01s.54.36.95.36.79-.13,1.07-.38l.28.46c-.18.17-.39.29-.64.37s-.51.12-.77.12Z"/>
        <path d="m163.55,50.14c-.51,0-.95-.08-1.32-.24-.37-.16-.66-.39-.86-.69s-.3-.64-.3-1.03c0-.35.08-.67.24-.96.16-.29.43-.52.81-.7.38-.18.88-.27,1.52-.27h2.53v.51h-2.52c-.71,0-1.21.13-1.5.4s-.43.59-.43.99c0,.44.17.79.5,1.05s.8.4,1.41.4,1.07-.13,1.47-.4c.4-.26.7-.65.89-1.15l.18.45c-.18.5-.5.9-.94,1.19-.44.29-1.01.44-1.69.44Zm2.48-.05v-1.57l-.03-.24v-2.58c0-.64-.17-1.13-.52-1.46-.35-.33-.85-.5-1.52-.5-.47,0-.92.08-1.32.24-.41.16-.76.37-1.05.63l-.33-.47c.34-.31.76-.55,1.24-.72.48-.17.99-.26,1.52-.26.85,0,1.51.22,1.96.65.46.43.68,1.07.68,1.92v4.36h-.63Z"/>
        <path d="m171.34,43.77v-.57h4.11v.57h-4.11Zm3.14,6.37c-.61,0-1.07-.17-1.39-.5-.32-.33-.48-.79-.48-1.37v-6.56h.66v6.5c0,.44.11.78.33,1.01s.54.36.95.36.79-.13,1.07-.38l.28.46c-.18.17-.39.29-.64.37-.25.08-.51.12-.77.12Z"/>
        <path d="m183.36,50.14c-.69,0-1.31-.15-1.84-.45-.53-.3-.95-.71-1.25-1.24-.3-.53-.46-1.13-.46-1.81s.14-1.29.43-1.81c.29-.52.68-.93,1.18-1.23.5-.3,1.06-.45,1.69-.45s1.18.15,1.68.44c.5.29.89.7,1.17,1.22.29.52.43,1.13.43,1.81,0,.03,0,.06,0,.09,0,.03,0,.06,0,.1h-6.08v-.51h5.72l-.26.25c0-.54-.1-1.02-.34-1.44-.23-.43-.55-.76-.94-1-.4-.24-.85-.36-1.37-.36s-.96.12-1.36.36c-.4.24-.71.58-.94,1-.23.43-.34.91-.34,1.46v.12c0,.56.12,1.06.38,1.5.25.44.6.77,1.04,1.02.44.24.94.36,1.5.36.44,0,.85-.08,1.23-.24.38-.16.71-.4.97-.73l.38.44c-.3.37-.67.65-1.13.84-.45.19-.94.28-1.47.28Z"/>
        <path d="m196.65,42.09l1.34-1.56h.71l1.34,1.56h-.65l-1.25-1.34h.4l-1.25,1.34h-.65Zm1.37,8v-6.88h.66v6.88h-.66Z"/>
        <path d="m207.92,43.15c.56,0,1.05.11,1.47.32.42.22.74.54.98.98.23.43.35.97.35,1.61v4.02h-.66v-3.97c0-.77-.2-1.36-.59-1.77-.39-.4-.94-.61-1.64-.61-.54,0-1,.11-1.4.33-.39.22-.7.53-.9.92-.21.4-.31.87-.31,1.42v3.66h-.66v-6.88h.63v1.91l-.09-.21c.21-.54.56-.97,1.04-1.29.48-.31,1.08-.47,1.78-.47Z"/>
        <path d="m225.65,50.15c-.69,0-1.33-.12-1.94-.35-.61-.23-1.08-.53-1.42-.9l.3-.5c.32.33.75.6,1.3.82.55.22,1.13.34,1.75.34s1.12-.08,1.51-.24c.39-.16.68-.38.87-.65.19-.27.28-.58.28-.91,0-.4-.11-.71-.32-.95-.21-.24-.49-.43-.83-.57s-.72-.26-1.12-.36c-.4-.1-.81-.2-1.23-.31-.41-.11-.79-.25-1.13-.43s-.62-.42-.82-.72c-.21-.3-.31-.7-.31-1.18,0-.44.11-.84.34-1.21s.58-.67,1.07-.9,1.1-.34,1.86-.34c.51,0,1.01.08,1.51.22.5.15.92.35,1.27.61l-.25.54c-.39-.26-.8-.46-1.25-.59-.44-.13-.87-.19-1.29-.19-.59,0-1.08.08-1.46.25s-.67.39-.86.67c-.18.28-.28.59-.28.93,0,.4.1.71.31.95.21.24.48.43.82.57s.72.26,1.13.36.82.2,1.23.31c.4.11.78.25,1.12.43.34.18.62.41.83.71s.32.69.32,1.16c0,.43-.12.83-.36,1.21-.24.37-.6.67-1.09.9-.49.22-1.11.34-1.88.34Z"/>
        <path d="m233,43.77v-.57h4.11v.57h-4.11Zm3.14,6.37c-.61,0-1.07-.17-1.39-.5-.32-.33-.48-.79-.48-1.37v-6.56h.66v6.5c0,.44.11.78.33,1.01s.54.36.95.36.79-.13,1.07-.38l.28.46c-.18.17-.39.29-.64.37-.25.08-.51.12-.77.12Z"/>
        <path d="m242.48,50.09v-6.88h.63v1.89l-.07-.21c.19-.55.52-.98.98-1.28s1.03-.45,1.71-.45v.65s-.05,0-.08,0c-.03,0-.05,0-.08,0-.76,0-1.36.24-1.79.72s-.65,1.14-.65,2v3.58h-.66Z"/>
        <path d="m251.99,50.14c-.51,0-.95-.08-1.33-.24-.37-.16-.66-.39-.86-.69-.2-.3-.3-.64-.3-1.03,0-.35.08-.67.24-.96.16-.29.43-.52.81-.7.38-.18.88-.27,1.52-.27h2.53v.51h-2.52c-.71,0-1.21.13-1.5.4-.29.26-.43.59-.43.99,0,.44.17.79.5,1.05s.8.4,1.41.4,1.07-.13,1.47-.4c.4-.26.7-.65.89-1.15l.18.45c-.18.5-.5.9-.94,1.19-.44.29-1.01.44-1.69.44Zm2.48-.05v-1.57l-.03-.24v-2.58c0-.64-.17-1.13-.52-1.46-.35-.33-.85-.5-1.52-.5-.47,0-.92.08-1.32.24-.41.16-.76.37-1.05.63l-.33-.47c.34-.31.76-.55,1.24-.72.48-.17.99-.26,1.52-.26.85,0,1.51.22,1.96.65.46.43.68,1.07.68,1.92v4.36h-.63Zm-2.04-7.95c-.52,0-.96-.14-1.32-.43-.37-.29-.56-.68-.57-1.17h.49c.02.36.16.65.44.86.27.21.6.32.97.32s.72-.11.99-.32.41-.5.42-.86h.49c-.02.49-.21.88-.57,1.17-.37.29-.81.43-1.33.43Z"/>
        <path d="m261.25,41.53c-.15,0-.28-.05-.38-.16s-.16-.23-.16-.37c0-.15.05-.28.16-.38s.23-.16.38-.16c.16,0,.29.05.39.15s.15.23.15.38-.05.28-.15.38c-.1.11-.23.16-.39.16Zm-.33,8.55v-6.88h.66v6.88h-.66Z"/>
        <path d="m270.82,43.15c.56,0,1.05.11,1.47.32.42.22.74.54.98.98.23.43.35.97.35,1.61v4.02h-.66v-3.97c0-.77-.2-1.36-.59-1.77-.39-.4-.94-.61-1.64-.61-.54,0-1,.11-1.4.33-.39.22-.7.53-.9.92-.21.4-.31.87-.31,1.42v3.66h-.66v-6.88h.63v1.91l-.09-.21c.21-.54.56-.97,1.04-1.29.48-.31,1.08-.47,1.78-.47Z"/>
        <path d="m281.28,50.14c-.51,0-.95-.08-1.33-.24-.37-.16-.66-.39-.86-.69-.2-.3-.3-.64-.3-1.03,0-.35.08-.67.24-.96.16-.29.43-.52.81-.7.38-.18.88-.27,1.52-.27h2.53v.51h-2.52c-.71,0-1.21.13-1.5.4-.29.26-.43.59-.43.99,0,.44.17.79.5,1.05s.8.4,1.41.4,1.07-.13,1.47-.4c.4-.26.7-.65.89-1.15l.18.45c-.18.5-.5.9-.94,1.19-.44.29-1.01.44-1.69.44Zm2.48-.05v-1.57l-.03-.24v-2.58c0-.64-.17-1.13-.52-1.46-.35-.33-.85-.5-1.52-.5-.47,0-.92.08-1.32.24-.41.16-.76.37-1.05.63l-.33-.47c.34-.31.76-.55,1.24-.72.48-.17.99-.26,1.52-.26.85,0,1.51.22,1.96.65.46.43.68,1.07.68,1.92v4.36h-.63Zm-2.04-7.95c-.52,0-.96-.14-1.32-.43-.37-.29-.56-.68-.57-1.17h.49c.02.36.16.65.44.86.27.21.6.32.97.32s.72-.11.99-.32.41-.5.42-.86h.49c-.02.49-.21.88-.57,1.17-.37.29-.81.43-1.33.43Z"/>
        <path d="m289.07,43.77v-.57h4.11v.57h-4.11Zm3.14,6.37c-.61,0-1.07-.17-1.39-.5-.32-.33-.48-.79-.48-1.37v-6.56h.66v6.5c0,.44.11.78.33,1.01s.54.36.95.36.79-.13,1.07-.38l.28.46c-.18.17-.39.29-.64.37-.25.08-.51.12-.77.12Z"/>
        <path d="m300.41,50.14c-.51,0-.95-.08-1.33-.24-.37-.16-.66-.39-.86-.69-.2-.3-.3-.64-.3-1.03,0-.35.08-.67.24-.96.16-.29.43-.52.81-.7.38-.18.88-.27,1.52-.27h2.53v.51h-2.52c-.71,0-1.21.13-1.5.4-.29.26-.43.59-.43.99,0,.44.17.79.5,1.05s.8.4,1.41.4,1.07-.13,1.47-.4c.4-.26.7-.65.89-1.15l.18.45c-.18.5-.5.9-.94,1.19-.44.29-1.01.44-1.69.44Zm2.48-.05v-1.57l-.03-.24v-2.58c0-.64-.17-1.13-.52-1.46-.35-.33-.85-.5-1.52-.5-.47,0-.92.08-1.32.24-.41.16-.76.37-1.05.63l-.33-.47c.34-.31.76-.55,1.24-.72.48-.17.99-.26,1.52-.26.85,0,1.51.22,1.96.65.46.43.68,1.07.68,1.92v4.36h-.63Z"/>
        <path d="m308.2,43.77v-.57h4.11v.57h-4.11Zm3.14,6.37c-.61,0-1.07-.17-1.39-.5-.32-.33-.48-.79-.48-1.37v-6.56h.66v6.5c0,.44.11.78.33,1.01s.54.36.95.36.79-.13,1.07-.38l.28.46c-.18.17-.39.29-.64.37-.25.08-.51.12-.77.12Z"/>
        <path d="m320.22,50.14c-.69,0-1.31-.15-1.84-.45-.53-.3-.95-.71-1.25-1.24-.3-.53-.46-1.13-.46-1.81s.14-1.29.43-1.81c.29-.52.68-.93,1.18-1.23s1.06-.45,1.69-.45,1.18.15,1.68.44c.5.29.89.7,1.17,1.22.29.52.43,1.13.43,1.81,0,.03,0,.06,0,.09,0,.03,0,.06,0,.1h-6.08v-.51h5.72l-.26.25c0-.54-.1-1.02-.34-1.44-.23-.43-.55-.76-.94-1-.4-.24-.85-.36-1.37-.36s-.96.12-1.36.36c-.4.24-.71.58-.94,1-.23.43-.34.91-.34,1.46v.12c0,.56.12,1.06.38,1.5.25.44.6.77,1.04,1.02.44.24.94.36,1.5.36.44,0,.85-.08,1.23-.24.38-.16.71-.4.97-.73l.38.44c-.3.37-.67.65-1.13.84-.45.19-.94.28-1.47.28Z"/>
      </g>
    </g>
  </g>
</svg>