<?xml version="1.0" encoding="UTF-8"?>
<svg id="Layer_2" data-name="Layer 2" xmlns="http://www.w3.org/2000/svg" viewBox="0 0 548.36 155.31">
  <defs>
    <style>
      .cls-1 {
        fill: #ed1c24;
      }
    </style>
  </defs>
  <g id="Layer_2-2" data-name="Layer 2">
    <g id="Layer_1-2" data-name="Layer 1-2">
      <g id="Text">
        <path class="cls-1" d="m162.5,73.81h-1.17c-.22,0-.4.19-.4.41v9.28c0,.22-.19.4-.41.41h-7.51c-.23,0-.41-.18-.41-.41h0v-33.43c0-.23.18-.41.41-.41h13.16c6.66.3,11.82,5.95,11.52,12.61-.18,4.08-2.42,7.8-5.94,9.87-.19.1-.27.35-.16.54h0l6.11,10.6c.12.19.05.45-.14.56-.06.04-.13.06-.21.06h-8.5c-.15,0-.28-.08-.35-.21l-5.64-9.68c-.07-.13-.21-.21-.36-.21h0Zm3.08-8.33c2.05.03,3.74-1.62,3.77-3.67v-.05c0-2.08-1.69-3.77-3.77-3.77h-4.25c-.22,0-.4.18-.4.4h0v6.68c0,.22.17.4.39.41h0s4.25,0,4.25,0Z"/>
        <path class="cls-1" d="m198.75,84.4c-9.3.03-16.87-7.48-16.9-16.78v-1.55c0-9.32,7.56-16.88,16.88-16.88s16.88,7.56,16.88,16.88h0v1.42c.04,9.3-7.47,16.87-16.77,16.91h-.09Zm.46-26.89c-4.73-.23-8.76,3.42-8.99,8.15,0,.14,0,.27,0,.41v1.08c-.07,4.6,3.42,8.48,8,8.9,4.71.3,8.78-3.27,9.08-7.98,0-.19.02-.39.02-.58v-1.14c.06-4.63-3.5-8.51-8.12-8.84h.02,0Z"/>
        <path class="cls-1" d="m244.44,83.53l-1-13.63c-.02-.23-.21-.39-.44-.38-.16.01-.29.11-.35.26l-5.18,13.82c-.06.16-.22.27-.39.27h-1.49c-.17,0-.32-.11-.38-.27l-5.17-13.85c-.08-.21-.32-.31-.53-.23-.15.06-.25.19-.26.35l-1,13.62c-.02.21-.19.38-.41.38h-7.55c-.23,0-.41-.18-.41-.41v-.03l2.44-33.43c0-.22.19-.39.41-.38h8.4c.17,0,.32.1.38.26l4.42,11.88c.07.21.3.32.5.26.12-.04.22-.13.26-.26l4.42-11.88c.06-.16.21-.26.38-.26h8.4c.22,0,.4.16.41.38l2.45,33.47c.02.23-.15.42-.38.44h-7.52c-.21,0-.39-.17-.41-.38h0Z"/>
        <path class="cls-1" d="m285.51,83.91h-7.91c-.18,0-.34-.12-.39-.29l-1.73-5.21c-.05-.17-.2-.28-.38-.29h-8c-.18,0-.33.12-.38.29l-1.77,5.19c-.06.17-.21.29-.39.29h-7.91c-.23,0-.41-.2-.41-.43,0-.04,0-.07.02-.11l11.05-33.43c.06-.17.21-.28.39-.28h6.81c.18,0,.33.11.39.28l11,33.43c.08.22-.04.46-.26.54-.04.02-.09.02-.13.02h0Zm-15.63-37.14h-3.84c-.23,0-.41-.18-.42-.4,0-.06.01-.12.04-.18l2.86-6.19c.06-.15.21-.24.37-.24h4.42c.16,0,.31.09.38.24l2.81,6.19c.09.21,0,.45-.2.54-.05.02-.11.04-.17.04h-3.81c-.19,0-.34-.13-.39-.31l-.85-3.12-.8,3.12c-.05.18-.21.31-.4.31h0Zm2.93,23.42l-1.34-4c-.06-.21-.28-.34-.49-.28-.13.04-.24.14-.28.28l-1.31,4c-.07.22.06.46.28.52.04.01.07.02.11.02h2.64c.23,0,.41-.18.41-.41,0-.04,0-.09-.02-.13h0Z"/>
        <path class="cls-1" d="m308.05,83.7l-8.67-15.39c-.12-.19-.37-.25-.56-.14-.12.07-.19.2-.2.34v15c0,.22-.19.4-.41.41h-7.46c-.23,0-.41-.18-.41-.41h0v-33.44c0-.23.18-.41.41-.41h7.53c.15,0,.29.08.36.21l8.67,15.42c.11.2.36.27.56.16.13-.07.22-.21.21-.36v-15c0-.22.17-.4.39-.41h7.52c.23,0,.41.18.41.41h0v33.41c0,.23-.18.41-.41.41h-7.53c-.17.02-.33-.06-.41-.21Z"/>
        <path class="cls-1" d="m323.17,83.5v-33.43c0-.23.18-.41.41-.41h7.51c.23,0,.41.18.41.41h0v33.43c0,.22-.19.4-.41.41h-7.51c-.23,0-.41-.18-.41-.41h0Z"/>
        <path class="cls-1" d="m356.49,83.6l-1.74-5.19c-.06-.17-.21-.28-.39-.29h-8c-.18,0-.34.12-.39.29l-1.74,5.19c-.05.17-.21.29-.39.29h-7.9c-.23,0-.41-.18-.41-.41,0-.04,0-.09.02-.13l11-33.43c.06-.17.21-.28.39-.28h6.81c.18,0,.33.11.39.28l11,33.43c.07.21-.04.45-.26.52-.04.01-.09.02-.13.02h-7.91c-.16-.02-.3-.13-.35-.29h0Zm-4.4-13.43l-1.33-4c-.07-.22-.3-.33-.52-.26-.12.04-.22.14-.26.26l-1.3,4c-.07.21.04.45.26.52.04.01.09.02.13.02h2.68c.22-.03.38-.24.35-.46,0-.02,0-.04-.01-.06v-.02h0Z"/>
        <path class="cls-1" d="m396.48,84.4c-9.3.03-16.87-7.48-16.9-16.78v-1.55c0-9.32,7.56-16.88,16.88-16.88s16.88,7.56,16.88,16.88v1.42c.04,9.3-7.47,16.87-16.77,16.91h-.09Zm0-26.9c-4.73,0-8.56,3.84-8.57,8.57v1.42c0,4.72,3.83,8.55,8.55,8.55s8.55-3.83,8.55-8.55v-1.42c0-4.72-3.81-8.55-8.53-8.57h0Z"/>
        <path class="cls-1" d="m436.02,83.71l-8.71-15.46c-.11-.19-.34-.25-.53-.15-.12.07-.2.2-.2.34v15.07c0,.22-.16.39-.38.4h-7.56c-.22,0-.39-.18-.39-.4v-33.46c0-.22.17-.39.39-.39h7.57c.14,0,.27.08.34.2l8.71,15.5c.11.19.34.25.53.15.13-.07.2-.21.2-.35v-15.11c0-.21.16-.38.37-.39h7.57c.22,0,.39.17.39.39h0v33.46c0,.22-.17.39-.39.4h-7.57c-.14,0-.27-.08-.34-.2h0Z"/>
        <path class="cls-1" d="m451.13,83.6v-33.55c0-.22.17-.39.39-.39h7.55c.21,0,.38.16.39.37v25.16c0,.21.18.38.39.39h13.28c.21,0,.38.16.39.37v7.65c0,.21-.16.38-.37.39h-21.63c-.22,0-.39-.17-.39-.39h0Z"/>
        <path class="cls-1" d="m477.64,83.51v-33.46c0-.22.18-.39.4-.39h7.53c.22,0,.39.17.4.39v33.46c0,.22-.18.4-.4.4h-7.53c-.22,0-.4-.18-.4-.4Z"/>
        <path class="cls-1" d="m510.55,83.7l-8.7-15.43c-.12-.19-.36-.25-.55-.13-.11.07-.19.19-.19.33v15c0,.22-.18.4-.4.4h-7.53c-.22,0-.4-.18-.4-.4v-33.42c0-.22.18-.39.4-.39h7.57c.14,0,.28.08.35.2l8.65,15.48c.11.19.35.26.54.16.13-.07.21-.21.21-.36v-15.09c0-.21.18-.38.39-.39h7.54c.22,0,.39.17.4.39v33.46c0,.22-.18.4-.4.4h-7.55c-.14,0-.27-.09-.33-.21h0Z"/>
        <path class="cls-1" d="m525.49,83.6v-33.55c0-.22.17-.39.39-.39h21.87c.22,0,.39.17.4.39v7.55c0,.22-.18.4-.4.4h-13.54c-.22,0-.39.16-.4.38h0v4.32c0,.22.18.39.4.39h12.09c.22,0,.4.18.4.4v7.53c0,.22-.18.4-.4.4h-12.09c-.22,0-.4.18-.4.4v3.37c0,.22.18.4.4.4h13.47c.22,0,.39.17.39.39h0v7.62c0,.22-.17.39-.39.39h-21.8c-.21,0-.38-.16-.39-.37v-.02h0Z"/>
        <path d="m161.56,95.51c-1.13,0-2.24.18-3.3.57-1,.37-1.91.94-2.68,1.7-.78.8-1.39,1.76-1.79,2.81-.46,1.25-.67,2.59-.64,3.93-.02,1.29.19,2.59.6,3.8.72,2.07,2.36,3.66,4.42,4.28,1.13.35,2.31.53,3.5.52.35,0,.72,0,1.12-.06s.78-.09,1.24-.16c.38-.06.77-.14,1.15-.24.35-.08.68-.18,1.02-.29v2.32c-.69.27-1.43.46-2.16.57-.82.13-1.65.2-2.48.2-1.59.03-3.16-.23-4.66-.75-1.28-.46-2.44-1.19-3.41-2.15-.94-.96-1.65-2.13-2.08-3.42-.97-2.98-.97-6.21,0-9.19.92-2.72,2.95-4.92,5.58-5.98,1.41-.57,2.93-.85,4.45-.82h1.31c.42.04.83.09,1.24.16.4.06.77.15,1.1.24s.62.2.87.3v2.32c-.67-.22-1.35-.38-2.05-.49-.77-.14-1.56-.19-2.34-.16h0Z"/>
        <path d="m185.4,107.47c0,1.12-.16,2.23-.51,3.28-.3.94-.78,1.8-1.43,2.53-.61.71-1.36,1.27-2.22,1.63-.93.39-1.92.6-2.93.58-1.03.01-2.05-.19-2.99-.58-.86-.37-1.61-.93-2.23-1.63-.64-.73-1.12-1.6-1.41-2.53-.33-1.06-.5-2.17-.48-3.28-.01-1.12.15-2.23.5-3.29.31-.93.79-1.79,1.43-2.53.62-.71,1.39-1.27,2.24-1.63.93-.41,1.92-.6,2.93-.58,1.02-.01,2.03.18,2.98.58.86.37,1.62.93,2.23,1.63.63.73,1.1,1.6,1.4,2.53.35,1.06.51,2.18.5,3.29h0Zm-2.55,0c.01-.86-.1-1.71-.33-2.53-.2-.68-.52-1.32-.94-1.88-.38-.49-.88-.89-1.44-1.15-1.18-.54-2.54-.54-3.72,0-.56.27-1.05.66-1.44,1.15-.43.56-.76,1.19-.94,1.88-.47,1.66-.47,3.41,0,5.07.19.67.51,1.31.94,1.85.4.49.89.89,1.45,1.15.57.27,1.2.41,1.84.39.62,0,1.24-.13,1.81-.39.56-.27,1.05-.66,1.44-1.15.42-.54.74-1.18.94-1.85.26-.82.4-1.67.4-2.53Z"/>
        <path d="m203.59,115.1h-2.48v-9.83c0-.57-.06-1.14-.21-1.7-.12-.42-.33-.81-.62-1.14-.26-.3-.6-.53-.95-.67-.4-.14-.82-.22-1.24-.2-.84,0-1.67.24-2.38.71-.76.53-1.41,1.2-1.92,1.98v10.86h-2.48v-15.28h1.89l.47,2.12h0c.27-.34.57-.67.89-.99s.68-.58,1.07-.8c.4-.23.81-.41,1.24-.54.51-.13,1.02-.19,1.54-.19.98-.04,1.96.25,2.77.82.76.57,1.35,1.34,1.71,2.23h0c.61-.9,1.38-1.66,2.27-2.24.89-.54,1.93-.84,2.98-.81.57,0,1.13.09,1.67.23,1.29.33,2.36,1.27,2.85,2.53.35.86.52,1.79.48,2.72v10.24h-2.48v-9.83c0-.57-.06-1.14-.21-1.7-.12-.42-.33-.81-.62-1.14-.26-.3-.6-.53-.95-.67-.4-.14-.82-.22-1.24-.2-.84,0-1.67.24-2.39.71-.76.52-1.41,1.19-1.92,1.98l.29,10.82h0Z"/>
        <path d="m226.24,115.5c-.71,0-1.41-.08-2.1-.27-.58-.15-1.13-.39-1.64-.72-.47-.3-.89-.67-1.24-1.12-.58-.79-.95-1.72-1.08-2.7-.06-.49-.1-1-.1-1.51v-9.38h2.48v9.36c-.02.72.09,1.44.33,2.12.24.63.68,1.17,1.24,1.52,1.36.77,3.01.77,4.38,0,.57-.39,1.02-.98,1.24-1.65.2-.62.3-1.28.27-1.94v-9.36h2.48v9.39c0,.48-.02.96-.09,1.44-.05.43-.14.86-.27,1.27-.19.52-.45,1.01-.78,1.46-.35.46-.77.85-1.24,1.15-.52.33-1.08.58-1.67.75-.73.16-1.48.23-2.22.18Z"/>
        <path d="m242.03,101.93h0c.29-.34.58-.67.91-.99.35-.3.72-.57,1.12-.8.43-.24.88-.42,1.35-.54,1.15-.28,2.37-.25,3.51.1.58.18,1.12.51,1.56.94.47.47.82,1.04,1.04,1.67.27.81.41,1.67.38,2.53v10.24h-2.48v-9.83c.09-1.01-.17-2.01-.76-2.84-.56-.61-1.35-.94-2.17-.87-.88,0-1.74.24-2.48.71-.81.51-1.5,1.18-2.03,1.98v10.86h-2.48v-15.27h1.9s.63,2.12.63,2.12Z"/>
        <path d="m259.32,96.26v-2.78h2.48v2.78h-2.48Zm.06,18.84v-15.28h2.48v15.28h-2.48Z"/>
        <path d="m277.2,115.12c-.31.11-.63.2-.97.24-.51.09-1.02.13-1.54.14-.69.01-1.39-.09-2.05-.3-.53-.16-1.03-.46-1.44-.85-.38-.38-.68-.84-.87-1.34-.19-.57-.29-1.17-.27-1.76v-9.24h-2.89v-2.14h2.89v-4.19h2.48v4.18h4.48v2.15h-4.48v8.87c0,.33.05.66.15.98.1.29.26.57.47.79.24.23.52.41.83.52.4.13.82.19,1.24.18.68,0,1.38-.1,2.03-.29l-.07,2.08h0Z"/>
        <path d="m291.88,113.41h-.06c-.22.28-.48.53-.76.76-.32.27-.68.49-1.05.67-.42.2-.87.37-1.31.48-.5.11-1,.18-1.51.18-.67,0-1.35-.1-1.98-.33-1.18-.42-2.12-1.34-2.58-2.53-.25-.66-.37-1.37-.36-2.08,0-.7.12-1.39.4-2.04.26-.58.64-1.12,1.13-1.53.51-.43,1.1-.76,1.74-.96.73-.23,1.49-.34,2.24-.33.72,0,1.45.06,2.16.2.6.11,1.19.27,1.76.48h.07v-1.06c0-.37-.02-.73-.09-1.1-.04-.3-.12-.6-.26-.86-.31-.54-.77-.99-1.31-1.27-.76-.38-1.59-.54-2.42-.51-.72,0-1.43.06-2.13.22-.68.14-1.35.34-2,.6v-2.09c.29-.14.58-.25.89-.35.35-.13.72-.22,1.08-.29.41-.09.82-.15,1.24-.19.42,0,.84-.06,1.24-.06,1.29-.05,2.57.23,3.72.82.89.48,1.62,1.24,2.07,2.17.16.37.27.75.33,1.14.07.44.11.9.1,1.36v10.2h-2.08l-.26-1.67h0Zm-.12-5.07c-.46-.14-.99-.25-1.6-.38-.68-.11-1.36-.18-2.05-.19-.88-.06-1.75.18-2.48.67-.61.51-.93,1.28-.87,2.08,0,.43.06.86.21,1.27.14.33.35.63.61.87.26.23.57.41.91.52.36.11.74.16,1.13.16.5,0,.98-.08,1.45-.23.43-.14.84-.33,1.24-.56.31-.19.61-.41.89-.65l.55-.49v-3.08h.01Z"/>
        <path d="m309,115.12c-.31.11-.63.2-.97.24-.51.09-1.02.13-1.54.14-.69.01-1.39-.09-2.05-.3-.53-.18-1.03-.47-1.44-.85-.38-.37-.68-.84-.86-1.34-.2-.57-.3-1.17-.29-1.76v-9.24h-2.79v-2.14h2.89v-4.19h2.48v4.18h4.48v2.15h-4.48v8.87c0,.33.05.66.15.98.1.29.26.57.48.79.24.23.51.41.82.52.4.13.82.19,1.24.18.68,0,1.38-.1,2.03-.29,0,0-.17,2.08-.17,2.08Z"/>
        <path d="m321.84,113.32c.74,0,1.49-.06,2.22-.2.68-.13,1.34-.32,1.98-.57v2.13c-.63.3-1.3.52-1.98.63-.82.15-1.65.24-2.48.24-1.02,0-2.03-.13-3.01-.42-.92-.25-1.76-.71-2.48-1.36-.72-.67-1.26-1.51-1.61-2.43-.42-1.17-.62-2.39-.58-3.64-.02-1.23.16-2.46.56-3.62.33-.94.86-1.8,1.51-2.53.61-.67,1.34-1.2,2.17-1.55.81-.34,1.67-.52,2.55-.52.81,0,1.6.14,2.34.43.73.28,1.38.75,1.9,1.34.57.68.99,1.5,1.24,2.36.33,1.13.48,2.31.46,3.48v.95h-10.33c-.02.86.12,1.72.43,2.53.27.65.71,1.2,1.24,1.65.52.43,1.12.75,1.76.93.69.15,1.4.22,2.11.16h0Zm-1.24-11.77c-.53,0-1.07.11-1.56.34-.47.22-.89.53-1.24.91-.37.39-.67.85-.88,1.36-.24.52-.4,1.08-.47,1.65h7.65c0-.57-.07-1.14-.22-1.69-.15-.49-.37-.95-.68-1.36-.29-.39-.67-.71-1.1-.91-.48-.23-1-.33-1.54-.3h.05,0Z"/>
        <path d="m347.78,91.4l3.31,5.61h-2.21l-2.32-3.95h-.06l-2.29,3.95h-2.21l3.31-5.61h2.47,0Zm-2.58,23.7v-15.28h2.48v15.28h-2.48Z"/>
        <path d="m356.4,101.93h0c.27-.35.58-.68.91-.99.33-.32.71-.58,1.1-.8.43-.24.88-.42,1.35-.54,1.17-.28,2.38-.25,3.52.1.58.18,1.12.51,1.55.94.47.47.83,1.04,1.05,1.67.27.81.4,1.67.38,2.53v10.24h-2.48v-9.83c.09-1-.17-2.01-.74-2.84-.56-.61-1.36-.93-2.18-.87-.88,0-1.74.25-2.48.71-.81.51-1.5,1.18-2.03,1.98v10.86h-2.48v-15.27h1.9s.63,2.12.63,2.12Z"/>
        <path d="m386.37,103.88c-.01.35.07.72.26,1.03.17.28.42.51.71.66.32.18.66.32,1.02.41.38.11.78.2,1.24.29s1.09.27,1.6.43c.5.15.97.38,1.39.7.45.33.79.76,1.03,1.27.3.65.43,1.36.4,2.07,0,.71-.14,1.41-.43,2.05-.3.58-.72,1.09-1.24,1.48-.58.43-1.23.73-1.92.93-.81.22-1.65.33-2.48.32-.5,0-.99-.03-1.49-.09-.42-.05-.83-.13-1.24-.23-.33-.09-.63-.19-.87-.28-.21-.08-.41-.18-.61-.28v-2.09c.6.24,1.22.44,1.85.61.66.15,1.33.24,2.01.23.52,0,1.05-.05,1.56-.16.43-.09.86-.24,1.24-.47.32-.19.58-.47.78-.79.17-.34.27-.72.26-1.1.01-.37-.06-.73-.25-1.06-.16-.28-.38-.52-.66-.7-.3-.19-.63-.34-.97-.44l-1.18-.3c-.52-.11-1.05-.25-1.6-.42-.52-.15-1.02-.38-1.48-.67-.45-.3-.82-.7-1.08-1.18-.29-.6-.43-1.25-.41-1.93-.01-.72.14-1.43.43-2.09.26-.57.66-1.06,1.14-1.46.5-.41,1.08-.7,1.69-.87.66-.19,1.35-.29,2.03-.29.78,0,1.55.08,2.31.24.66.15,1.3.35,1.93.61v2.13c-.61-.24-1.24-.44-1.87-.61-.64-.15-1.29-.23-1.95-.24-.48-.01-.97.05-1.44.18-.36.09-.68.25-.98.48-.25.2-.45.46-.57.75-.11.29-.17.6-.17.91h0Z"/>
        <path d="m407.71,115.12c-.31.11-.63.2-.97.24-.51.09-1.02.13-1.54.14-.69.01-1.39-.09-2.05-.3-.53-.18-1.03-.47-1.44-.85-.38-.37-.68-.84-.86-1.34-.2-.57-.3-1.17-.29-1.76v-9.24h-2.89v-2.14h2.89v-4.19h2.48v4.18h4.48v2.15h-4.53v8.87c0,.33.05.66.16.98.09.3.25.57.47.79.24.23.51.41.82.52.4.13.82.19,1.24.18.68,0,1.38-.1,2.03-.29l-.02,2.08h0Z"/>
        <path d="m421.86,101.84h-.19c-.57,0-1.14.05-1.7.16-.53.1-1.07.25-1.56.48-.47.22-.92.48-1.33.81-.38.32-.72.71-.98,1.14v10.66h-2.48v-15.28h1.89l.47,2.43h0c.55-.85,1.28-1.55,2.16-2.01.46-.27.94-.47,1.45-.61.53-.14,1.09-.22,1.65-.22h.61v2.43h.01Z"/>
        <path d="m434.13,93.48c-.11.27-.27.52-.48.72-1.08.91-2.64.91-3.72,0-.21-.2-.37-.46-.48-.72h-2.24c0,.16.1.33.16.48.21.56.53,1.06.94,1.5.41.44.92.79,1.48,1,.63.25,1.31.38,2,.37.68,0,1.35-.11,1.98-.37.56-.23,1.07-.57,1.49-1,.41-.43.73-.94.94-1.5.06-.15.11-.32.16-.48h-2.22Zm3.19,10.06c-.06-.39-.19-.77-.35-1.14-.45-.93-1.17-1.69-2.06-2.17-1.15-.6-2.43-.87-3.72-.82-.42,0-.84,0-1.24.06-.42.04-.83.1-1.24.19-.36.08-.73.16-1.08.29-.31.1-.61.22-.89.35v2.09c.64-.25,1.31-.46,1.98-.6.71-.15,1.41-.23,2.13-.22.86-.05,1.71.13,2.48.51.55.28.99.72,1.3,1.27.14.27.22.56.27.86.05.37.07.73.07,1.1v1.06h-.06c-.57-.2-1.17-.37-1.76-.48-.71-.14-1.44-.2-2.16-.2-.76,0-1.51.1-2.24.33-.63.2-1.23.53-1.74.96-.48.42-.87.95-1.13,1.53-.27.65-.41,1.34-.4,2.04,0,.71.11,1.42.36,2.08.22.58.57,1.12,1.02,1.55.45.43.98.77,1.56.98.63.23,1.31.33,1.98.33.51,0,1.02-.06,1.51-.18.45-.11.88-.28,1.3-.48.37-.18.73-.41,1.05-.67.27-.23.53-.48.76-.76h.06l.27,1.69h2.05v-10.2c0-.46-.04-.91-.11-1.36h0Zm-2.34,7.91l-.53.49c-.29.24-.58.46-.89.65-.4.23-.81.42-1.24.56-.47.15-.97.23-1.46.23-.37,0-.76-.05-1.12-.16-.33-.1-.64-.28-.91-.52-.26-.24-.47-.54-.61-.87-.16-.41-.24-.84-.22-1.27-.05-.8.27-1.57.88-2.08.73-.49,1.6-.73,2.48-.67.68,0,1.36.08,2.03.19.62.13,1.15.24,1.6.38v3.08h-.01Z"/>
        <path d="m444.56,99.82v15.28h2.48v-15.28h-2.48Zm-.06-6.34v2.78h2.48v-2.78h-2.48Z"/>
        <path d="m456.45,101.93h0c.27-.35.58-.68.91-.99.33-.32.71-.58,1.1-.8.43-.24.88-.42,1.35-.54.52-.13,1.07-.19,1.6-.19.64,0,1.29.1,1.91.29.58.18,1.13.51,1.56.94.47.47.83,1.04,1.05,1.67.27.81.4,1.67.38,2.53v10.24h-2.48v-9.83c.09-1-.17-2.01-.74-2.84-.56-.61-1.36-.93-2.18-.87-.88,0-1.74.24-2.48.71-.81.51-1.5,1.18-2.03,1.98v10.86h-2.48v-15.27h1.9l.63,2.12h0Z"/>
        <path d="m480.25,93.48c-.11.27-.27.52-.48.72-.51.47-1.17.71-1.85.67-.68.04-1.34-.2-1.85-.67-.21-.2-.37-.46-.48-.72h-2.24c0,.16.1.33.16.48.21.56.53,1.06.94,1.5.42.43.93.77,1.49,1,.63.25,1.3.38,1.98.37.68,0,1.36-.11,2-.37.56-.22,1.07-.56,1.48-1,.41-.43.73-.94.94-1.5.06-.15.12-.32.17-.48h-2.26Zm3.19,10.06c-.05-.39-.17-.79-.33-1.14-.45-.93-1.18-1.69-2.07-2.17-1.15-.6-2.43-.87-3.72-.82-.42,0-.84,0-1.24.06-.42.04-.83.1-1.24.19-.36.08-.73.16-1.08.29-.31.1-.61.22-.89.35v2.09c.64-.25,1.31-.46,2-.6.71-.15,1.41-.23,2.13-.22.83-.04,1.66.13,2.42.51.55.28,1,.72,1.31,1.27.14.27.22.56.26.86.06.37.09.73.09,1.1v1.06h0c-.58-.2-1.17-.37-1.77-.48-.71-.14-1.44-.2-2.16-.2-.76-.01-1.51.1-2.23.33-.63.2-1.23.53-1.75.96-.48.42-.87.95-1.13,1.53-.27.65-.41,1.34-.4,2.04,0,.71.11,1.42.36,2.08.46,1.19,1.4,2.12,2.58,2.53.63.23,1.31.33,1.98.33.51,0,1.02-.06,1.51-.18.46-.11.89-.28,1.31-.48.37-.18.73-.41,1.05-.67.27-.23.53-.48.76-.76h.06l.26,1.69h2.05v-10.2c0-.46-.04-.91-.12-1.37h0Zm-2.33,7.91l-.55.49c-.29.24-.58.46-.89.65-.4.23-.81.42-1.24.56-.47.15-.95.23-1.45.23-.38,0-.77-.05-1.13-.16-.33-.11-.64-.29-.91-.52-.26-.24-.47-.54-.61-.87-.15-.41-.22-.84-.21-1.27-.06-.8.27-1.57.88-2.08.72-.48,1.56-.72,2.42-.67.68,0,1.36.08,2.05.19.61.13,1.14.24,1.6.38l.04,3.08h0Z"/>
        <path d="m498.75,115.12c-.31.11-.63.2-.95.24-.51.09-1.03.13-1.55.14-.69.01-1.39-.09-2.05-.3-.53-.18-1.02-.47-1.44-.85-.38-.37-.68-.84-.86-1.34-.2-.57-.29-1.17-.29-1.76v-9.24h-2.88v-2.14h2.88v-4.19h2.48v4.18h4.46v2.15h-4.46v8.87c0,.33.05.66.15.98.1.29.26.57.47.79.24.23.52.41.83.52.4.13.82.19,1.24.18.35,0,.69-.03,1.04-.08.33-.05.67-.11.99-.22l-.07,2.08h0Z"/>
        <path d="m513.44,113.41h0c-.22.28-.48.53-.76.76-.32.27-.68.49-1.05.67-.42.2-.86.37-1.3.48-.5.11-1,.18-1.51.18-.68,0-1.35-.1-2-.33-.58-.22-1.1-.54-1.55-.98s-.79-.96-1.02-1.55c-.25-.66-.37-1.37-.36-2.08-.01-.7.12-1.39.4-2.04.26-.58.64-1.12,1.13-1.53.51-.43,1.1-.76,1.74-.96.73-.23,1.49-.34,2.24-.33.72,0,1.45.06,2.16.2.6.11,1.19.28,1.76.48h.06v-1.06c0-.37-.02-.73-.07-1.1-.05-.3-.14-.6-.27-.86-.29-.53-.72-.98-1.24-1.27-.77-.38-1.62-.56-2.48-.51-.72,0-1.43.06-2.13.22-.67.14-1.34.34-1.98.6v-2.09c.29-.14.58-.25.88-.35.36-.11.72-.22,1.08-.29.41-.09.82-.15,1.24-.19.42,0,.84-.06,1.24-.06,1.29-.05,2.57.23,3.72.82.91.48,1.62,1.24,2.07,2.17.16.37.29.75.35,1.14.06.44.1.9.1,1.36v10.2h-2.05l-.38-1.69h0Zm-.12-5.07c-.45-.14-.98-.25-1.6-.38-.67-.11-1.35-.18-2.03-.19-.88-.06-1.75.18-2.48.67-.61.51-.93,1.28-.88,2.08,0,.43.06.86.22,1.27.14.33.35.63.61.87s.57.42.91.52c.36.11.74.16,1.12.16.5,0,.99-.08,1.46-.23.43-.14.84-.33,1.24-.56.32-.19.62-.41.91-.65l.53-.49v-3.08h0Z"/>
        <path d="m531,115.12c-.31.11-.63.2-.95.24-.51.09-1.03.13-1.55.14-.69.01-1.39-.09-2.05-.3-.53-.18-1.02-.47-1.44-.85-.38-.37-.68-.84-.86-1.34-.2-.57-.29-1.17-.29-1.76v-9.24h-2.88v-2.14h2.88v-4.19h2.48v4.18h4.48v2.15h-4.54v8.87c0,.33.05.66.15.98.1.29.26.57.47.79.24.23.52.41.83.52.4.13.82.19,1.24.18.35,0,.68-.03,1.03-.08.33-.05.67-.11.99-.22v2.08h0Z"/>
        <path d="m543.55,113.32c.74,0,1.49-.06,2.22-.2.68-.13,1.34-.32,1.98-.57v2.13c-.63.3-1.3.52-1.98.63-.82.15-1.65.24-2.48.24-1.02,0-2.03-.14-3.01-.42-.92-.25-1.76-.72-2.48-1.36-.72-.67-1.26-1.51-1.61-2.43-.41-1.17-.61-2.39-.58-3.64-.02-1.23.16-2.46.57-3.62.33-.94.84-1.8,1.5-2.53.61-.67,1.34-1.2,2.17-1.55.81-.34,1.67-.52,2.55-.52.81,0,1.6.14,2.36.43.72.29,1.38.75,1.89,1.34.57.68.99,1.5,1.24,2.36.33,1.12.5,2.29.48,3.46v.95h-10.32c-.02.86.11,1.72.42,2.53.27.65.71,1.2,1.24,1.65.51.43,1.1.75,1.75.93.68.16,1.39.23,2.1.19Zm-1.24-11.77c-.55,0-1.08.11-1.58.34-.47.22-.89.53-1.24.91-.37.39-.67.85-.88,1.36-.22.53-.36,1.09-.41,1.67h7.65c0-.57-.07-1.14-.24-1.69-.14-.49-.37-.95-.68-1.36-.29-.39-.66-.7-1.09-.91-.5-.24-1.03-.34-1.58-.33h.04,0Z"/>
      </g>
      <g id="Logo">
        <path class="cls-1" d="m135.41,154.78l-1.06.53h-55.49l-18.82-37.6-7.08-14.16-.13-.07-.38-.73-1.9-3.75c8.53,2.13,17.4-.06,23.11-6.71l-30.54-15.29,3.72-7.43,31.2,15.62,3.82-7.63-31.2-15.62,3.71-7.42,31.21,15.62,3.74-7.49-31.21-15.6,3.73-7.43,30.53,15.28c2.33-10.5-3.29-20.57-13.35-25.61l-6.22-3.11c-10.06-5-21.35-3.42-28.36,4.74l8.66,4.32-3.72,7.44-9.32-4.66-3.74,7.47,9.32,4.66-3.72,7.4-9.31-4.66-3.86,7.66,9.31,4.66-3.72,7.42-8.59-4.32c-2.31,10.38,2.68,20.18,12.5,25.26l-.13.26-.88,1.77v.07h.05l-29.14,58.21c-.44.86-1.32,1.41-2.29,1.41h-3.31c-1.41,0-2.55-1.14-2.55-2.55V2.55C0,1.14,1.14,0,2.55,0h80.72c29,0,52.21,23.89,52.21,52.87,0,19.31-10.41,37.86-26,47l27.08,51.57c.57,1.24.07,2.72-1.15,3.34h0Z"/>
      </g>
    </g>
  </g>
</svg>